<svg id="Layer_1" enable-background="new 0 0 512 512" height="512" viewBox="0 0 512 512" width="512" xmlns="http://www.w3.org/2000/svg"><g><path d="m92.65 392.672c-7.13 0-12.92 5.8-12.92 12.93 0 7.12 5.79 12.92 12.92 12.92s12.93-5.8 12.93-12.92c0-7.13-5.8-12.93-12.93-12.93z"/><path d="m215.3 354.232c-5.2-2.59-9.8-6.41-13.3-11.06l-48.52-64.44-36.61 36.48c-32.03-8.37-65.96.7-89.55 24.2-17.62 17.56-27.32 40.91-27.32 65.74 0 24.84 9.7 48.19 27.32 65.75 18.18 18.11 42.05 27.17 65.93 27.17 23.87 0 47.75-9.06 65.92-27.17 24.61-24.53 33.35-60.44 23.18-93.21l40.02-19.94zm-122.65 94.29c-23.67 0-42.92-19.26-42.92-42.92 0-23.67 19.25-42.93 42.92-42.93s42.93 19.26 42.93 42.93c0 23.66-19.26 42.92-42.93 42.92z"/><path d="m452 104.702c1.48-1.96 1.94-4.51 1.23-6.86l-23.45-78.4c-.78-2.6-2.87-4.61-5.51-5.28-2.63-.66-5.42.1-7.35 2.02l-139.67 139.2 78.03 77.77z"/><path d="m419.17 392.672c-7.12 0-12.92 5.8-12.92 12.93 0 7.12 5.8 12.92 12.92 12.92 7.13 0 12.93-5.8 12.93-12.92 0-7.13-5.8-12.93-12.93-12.93z"/><path d="m484.68 339.412c-23.59-23.5-57.52-32.57-89.55-24.2l-300.05-299.03c-1.93-1.92-4.72-2.68-7.35-2.02-2.64.67-4.73 2.68-5.51 5.28l-23.45 78.4c-.71 2.35-.25 4.9 1.23 6.86l165.95 220.42c.72.95 1.66 1.73 2.73 2.26l100.97 50.31c-10.17 32.77-1.43 68.68 23.18 93.21 18.17 18.11 42.05 27.17 65.92 27.17 23.88 0 47.75-9.06 65.93-27.17 17.62-17.56 27.32-40.91 27.32-65.74 0-24.84-9.7-48.19-27.32-65.75zm-65.51 109.11c-23.67 0-42.92-19.25-42.92-42.92s19.25-42.93 42.92-42.93 42.93 19.26 42.93 42.93-19.26 42.92-42.93 42.92z"/></g></svg>